<!DOCTYPE svg PUBLIC "-//W3C//DTD SVG 1.1//EN" "http://www.w3.org/Graphics/SVG/1.1/DTD/svg11.dtd">
<!-- Uploaded to: SVG Repo, www.svgrepo.com, Transformed by: SVG Repo Mixer Tools -->
<svg height="96px" width="96px" version="1.1" id="Layer_1" xmlns="http://www.w3.org/2000/svg" xmlns:xlink="http://www.w3.org/1999/xlink" viewBox="0 0 512 512" xml:space="preserve" fill="#ffffff" stroke="#ffffff">
<g id="SVGRepo_bgCarrier" stroke-width="0"/>
<g id="SVGRepo_tracerCarrier" stroke-linecap="round" stroke-linejoin="round"/>
<g id="SVGRepo_iconCarrier"> <circle style="fill:#1fc6f9;" cx="256.021" cy="255.952" r="247.341"/> <path style="fill:#0898c4;" d="M350.475,402.384c-136.603,0-247.342-110.739-247.342-247.341c0-40.264,9.682-78.243,26.751-111.84 C57.328,86.312,8.677,165.435,8.677,255.954c0,136.602,110.739,247.341,247.341,247.341c96.338,0,179.752-55.116,220.591-135.501 C439.672,389.742,396.558,402.384,350.475,402.384z"/> <path style="fill:#92f25a;" d="M298.941,305.418l-4.391-3.076c-5.59-3.915-12.506-5.448-19.227-4.263l-3.811,0.672 c-4.481,0.79-9.092-0.232-12.818-2.842l-29.745-20.827c-9.318-6.525-20.847-9.081-32.049-7.105l-35.763,6.306h0.001l39.568,40.073 l7.417,43.186l8.761,46.023c1.995,11.315,6.243,22.112,12.491,31.754l17.023,26.267c2.241,3.459,6.306,5.281,10.379,4.651 l0.068-0.01c5.799-0.895,9.728-6.383,8.708-12.16l-5.59-31.711l15.427-14.737c4.474-4.275,7.259-10.017,7.843-16.178l2.061-21.713 c0.682-4.604,4.237-8.256,8.821-9.065l5.309-0.937c4.887-0.862,8.562-4.94,8.911-9.89l1.52-21.523 C310.487,319.293,306.346,310.603,298.941,305.418z"/> <path style="fill:#7fd463;" d="M282.836,393.556c-26.903-7.735-52.086-20.061-74.715-36.016l8.76,46.023 c1.995,11.315,6.243,22.113,12.491,31.754l17.023,26.267c2.241,3.459,6.306,5.28,10.378,4.651l0.068-0.01 c5.799-0.895,9.729-6.382,8.708-12.16l-5.59-31.71l15.427-14.739C279.339,403.843,281.87,398.897,282.836,393.556z"/> <g> <path style="fill:#92f25a;" d="M95.404,266.414l34.774,1.048l21.001-1.773c-2.468-13.997,4.326-42.677,4.326-42.677l55.617-86.786 c1.304-1.863,3.297-3.133,5.538-3.527l12.742-2.247c3.116-0.55,5.677-2.77,6.663-5.777l1.631-4.978 c1.378-4.206-0.67-8.77-4.729-10.537l-22.874-9.951c-5.807-2.526-5.845-10.748-0.062-13.328l25.695-11.46l-1.878-10.652 l-61.338,10.815L132.795,96.36l-2.526-14.324l-10.245,1.806c-8.962,1.58-16.929,6.656-22.148,14.111l-4.474,6.39 c-2.717,3.881-8.066,4.824-11.947,2.106l-10.04-7.03l-6.301-0.257C42.427,126.7,25.717,158.988,16.479,193.89l23.207,42.856 c4.434,8.187,13.608,12.619,22.777,11.003l5.95-1.049l6.91,9.315C80.053,262.395,87.464,266.232,95.404,266.414z"/> <path style="fill:#92f25a;" d="M479.254,149.35l-3.086-0.301l-12.215,2.154c-5.003,0.883-9.634,3.226-13.307,6.735l-4.955,4.733 c-7.19,6.871-17.696,8.981-26.982,5.423l-18.189-6.968c-8.71-3.338-18.164-4.245-27.352-2.625l-19.49,3.436 c-10.362,1.828-18.57,9.78-20.721,20.079l-3.933,18.824c-1.291,6.17-1.389,12.529-0.295,18.735 c2.708,15.357,12.488,28.543,26.398,35.591l1.434,0.726c9.562,4.845,20.438,6.457,30.993,4.596l0.632-0.112 c13.998-2.468,27.344,6.879,29.811,20.874l5.003,28.368c1.612,9.153,5.071,17.882,10.158,25.658l18.673,28.538 c4.674,7.144,12.507,11.22,20.818,11.527c19.551-35.402,30.709-76.085,30.709-119.388 C503.359,217.78,494.698,181.633,479.254,149.35z"/> <path style="fill:#92f25a;" d="M450.454,124.422l13.326-2.35l0.132-0.049c-21.356-33.083-50.375-60.723-84.57-80.439l-5.147,8.422 l-6.203,8.86c-1.647,2.35-2.29,5.257-1.792,8.083l3.165,17.947c1.084,6.143-0.317,12.467-3.896,17.576 c-2.093,2.991-4.855,5.454-8.067,7.192l-16.318,7.522c-7.077,3.262-11.066,10.885-9.713,18.56l2.171,12.32 c1.647,9.331,10.544,15.562,19.875,13.916l14.497-2.556c6.608-1.166,11.931-6.077,13.622-12.571l5.806-22.288l23.976-4.228 c5.246-0.925,10.635-0.616,15.741,0.903l7.655,2.276C439.82,125.039,445.208,125.348,450.454,124.422z"/> </g> <path style="fill:#7fd463;" d="M130.178,267.461c-17.252-33.738-27.046-71.924-27.046-112.418c0-23.934,3.494-47.031,9.854-68.911 c-0.23,0.061-0.46,0.09-0.692,0.152c-5.731,2.504-10.77,6.458-14.419,11.667l-4.474,6.391c-2.717,3.881-8.067,4.824-11.948,2.106 l-10.04-7.03l-6.105-0.25c-0.03,0.037-0.248-0.044-0.355-0.054c-22.506,27.369-39.256,59.609-48.374,94.962l23.106,42.669 c4.433,8.187,13.608,12.62,22.777,11.003l5.949-1.049l6.91,9.315c4.732,6.378,12.143,10.215,20.082,10.397L130.178,267.461z"/> <path style="fill:#e90743;" d="M308.327,155.186c-20.443,0-38.952,8.349-52.371,21.846c-13.419-13.497-31.928-21.846-52.371-21.846 c-40.975,0-74.192,33.522-74.192,74.872c0,57.255,66.557,126.071,126.563,154.148c60.008-28.077,126.563-96.893,126.563-154.147 C382.519,188.707,349.302,155.186,308.327,155.186z"/> <path style="fill:#b90431;" d="M210.152,220.897c0-24.228,9.118-45.705,23.201-59.389c-9.117-4.04-19.172-6.321-29.768-6.321 c-40.976,0-74.193,33.52-74.193,74.871c0,57.255,66.557,126.072,126.563,154.149c12.159-5.689,24.567-13.114,36.656-21.712 C250.556,329.688,210.152,270.891,210.152,220.897z"/> <path d="M508.045,211.558c-11.871-67.324-49.248-125.995-105.248-165.206C346.799,7.14,278.884-7.914,211.558,3.955 C144.234,15.825,85.563,53.203,46.353,109.202C7.141,165.201-7.916,233.118,3.955,300.441s49.248,125.995,105.248,165.206 C152.717,496.116,203.421,512,255.457,512c14.931,0,29.975-1.309,44.985-3.955c67.324-11.871,125.995-49.248,165.206-105.248 C504.859,346.797,519.915,278.88,508.045,211.558z M406.75,128.939l2.373,13.454c0.735,4.167,4.358,7.098,8.447,7.098 c0.495,0,0.997-0.044,1.501-0.132c4.672-0.824,7.79-5.278,6.967-9.949l-1.773-10.054l5.984,1.781 c6.321,1.879,13.096,2.267,19.589,1.123l9.462-1.668c2.121,3.439,4.153,6.931,6.095,10.478l-5.12,0.902 c-6.667,1.176-12.777,4.269-17.672,8.944l-4.926,4.705c-4.583,4.379-11.3,5.834-17.268,3.785l-30.621-17.495l2.725-10.465 L406.75,128.939z M468.603,364.704c-4.726-0.765-9.012-3.474-11.697-7.577l-18.567-28.374c-4.448-6.798-7.419-14.301-8.829-22.301 l-4.973-28.205c-1.186-6.726-4.31-12.871-9.037-17.773c-3.293-3.414-8.73-3.514-12.144-0.221c-3.414,3.292-3.513,8.729-0.221,12.144 c2.344,2.431,3.896,5.485,4.485,8.832l4.973,28.205c1.817,10.305,5.643,19.968,11.372,28.723l18.567,28.374 c4.207,6.43,10.379,11.139,17.403,13.612c-2.645,4.332-5.421,8.605-8.358,12.8c-36.579,52.241-91.313,87.11-154.118,98.184 c-62.806,11.077-126.164-2.973-178.404-39.552s-87.11-91.312-98.184-154.118c-4.75-26.936-4.864-53.971-0.577-80.19l12.079,22.305 c6.179,11.41,18.919,17.565,31.693,15.309l0.687-0.12l3.708,4.999c6.328,8.531,16.049,13.564,26.668,13.806l7.174,0.164 c0.068,0.001,0.134,0.002,0.2,0.002c4.653,0,8.475-3.717,8.583-8.392c0.109-4.742-3.648-8.674-8.39-8.782l-7.174-0.164 c-5.282-0.12-10.117-2.625-13.264-6.867l-6.871-9.263c-1.939-2.613-5.186-3.908-8.39-3.341l-5.914,1.043 c-5.484,0.968-10.953-1.673-13.605-6.572l-21.516-39.736c7.191-25.636,18.738-50.15,34.462-72.606 c2.733-3.904,5.58-7.699,8.513-11.405l7.594,5.318c7.732,5.415,18.426,3.528,23.84-4.204l4.449-6.354 c3.912-5.586,9.763-9.314,16.478-10.497l1.729-0.305l0.775,4.395l0.245,1.389v0.001l1.481,8.398 c0.735,4.167,4.358,7.098,8.447,7.098c0.495,0,0.997-0.044,1.501-0.132c4.672-0.824,7.79-5.278,6.967-9.949l-0.412-2.337 l32.846-18.008l33.253-5.864l-2.329,1.039c-5.816,2.594-9.41,8.16-9.381,14.529c0.029,6.368,3.675,11.902,9.515,14.442l22.711,9.82 l-1.624,4.951c-1.477,4.507,0.98,9.358,5.487,10.835c0.887,0.291,1.79,0.429,2.675,0.429c3.612,0,6.974-2.297,8.159-5.917 l1.621-4.948c2.767-8.443-1.291-17.482-9.438-21.026l-19.936-8.673l22.752-10.147c3.599-1.605,5.644-5.454,4.961-9.334 l-1.867-10.591c-0.395-2.243-1.666-4.238-3.531-5.545c-1.865-1.307-4.175-1.817-6.417-1.423l-60.988,10.755 c-0.924,0.164-1.815,0.476-2.637,0.928L138.88,82.611l-0.431-2.444c-0.823-4.671-5.273-7.789-9.949-6.966l-10.187,1.796 c-11.233,1.981-21.023,8.217-27.566,17.561l-4.366,6.339l-6.269-4.39c35.301-38.607,82.053-64.402,134.429-73.637 c14.007-2.47,28.034-3.69,41.967-3.69c38.168,0,75.574,9.169,109.553,26.904l-6.739,9.611c-2.964,4.232-4.103,9.366-3.205,14.453 l3.147,17.845c0.687,3.892-0.184,7.82-2.452,11.059c-1.289,1.842-3.01,3.387-4.981,4.473l-23.789,12.024 c-4.233,2.14-5.93,7.306-3.791,11.539c1.512,2.991,4.535,4.717,7.672,4.717c1.303,0,2.625-0.298,3.867-0.925l23.911-12.084 c0.072-0.037,0.144-0.074,0.215-0.113c4.343-2.351,8.136-5.732,10.968-9.778c4.9-6.998,6.78-15.483,5.297-23.894l-3.147-17.845 c-0.098-0.561,0.031-1.15,0.358-1.618l7.67-10.939c4.019,2.479,7.984,5.082,11.885,7.813c1.471,1.031,2.925,2.08,4.369,3.139 l-5.78,5.292c-3.498,3.203-3.739,8.635-0.536,12.133c1.694,1.85,4.011,2.789,6.337,2.789c2.071,0,4.149-0.744,5.797-2.254 l7.835-7.172c14.279,12.138,26.945,25.778,37.842,40.652l-1.951,0.344c-3.88,0.686-7.93,0.453-11.71-0.671l-7.61-2.265 c-6.322-1.879-13.097-2.267-19.59-1.123l-23.841,4.204c-3.308,0.584-5.973,3.043-6.82,6.293l-5.772,22.161 c-0.978,3.754,0.682,7.697,4.05,9.622l36.959,21.116c0.381,0.218,0.778,0.405,1.187,0.562c3.938,1.509,8.061,2.242,12.16,2.242 c8.668,0,17.225-3.282,23.675-9.444l4.926-4.705c2.435-2.326,5.475-3.865,8.79-4.449l10.143-1.789 c8.198,18.103,14.183,37.355,17.725,57.439C500.275,266.411,492.27,318.653,468.603,364.704z"/> <path d="M267.399,418.542c-0.823-4.671-5.278-7.791-9.949-6.967c-4.671,0.823-7.79,5.278-6.967,9.949l5.559,31.53 c0.11,0.622-0.109,1.09-0.311,1.373c-0.203,0.284-0.576,0.642-1.268,0.748c-0.703,0.113-1.413-0.208-1.801-0.807l-16.926-26.117 c-5.618-8.668-9.376-18.222-11.168-28.384l-0.995-5.691c-0.816-4.672-5.265-7.797-9.939-6.981c-4.672,0.816-7.798,5.267-6.981,9.939 l0.997,5.703c2.195,12.452,6.796,24.144,13.671,34.754l16.926,26.117c3.528,5.443,9.566,8.657,15.97,8.657 c0.973,0,1.955-0.074,2.936-0.226c5.09-0.787,9.544-3.526,12.542-7.712c2.999-4.186,4.157-9.286,3.264-14.357L267.399,418.542z"/> <path d="M162.15,125.245c1.863,0,3.741-0.605,5.318-1.849l12.89-10.181c3.722-2.939,4.357-8.341,1.416-12.062 c-2.939-3.722-8.34-4.356-12.062-1.416l-12.89,10.181c-3.722,2.939-4.357,8.341-1.416,12.062 C157.1,124.125,159.612,125.245,162.15,125.245z"/> <path d="M330.077,87.044c0.735,4.167,4.358,7.098,8.447,7.098c0.495,0,0.997-0.044,1.501-0.132c4.672-0.824,7.79-5.278,6.967-9.949 l-2.962-16.799c-0.823-4.672-5.275-7.789-9.949-6.967c-4.672,0.824-7.79,5.278-6.967,9.949L330.077,87.044z"/> <path d="M308.327,146.598c-19.312,0-37.623,6.63-52.371,18.821c-14.748-12.191-33.06-18.821-52.371-18.821 c-45.645,0-82.78,37.44-82.78,83.459c0,28.463,15.226,61.717,42.875,93.638c24.819,28.655,57.127,53.545,88.638,68.288 c1.153,0.539,2.397,0.81,3.639,0.81c1.244,0,2.486-0.27,3.639-0.81c31.511-14.743,63.817-39.633,88.636-68.288 c27.648-31.921,42.875-65.176,42.875-93.638C391.107,184.037,353.972,146.598,308.327,146.598z M255.956,374.676 c-56.551-27.966-117.975-93.004-117.975-144.618c0-36.548,29.43-66.283,65.604-66.283c17.463,0,33.9,6.859,46.281,19.313 c1.612,1.621,3.804,2.533,6.09,2.533s4.478-0.912,6.091-2.533c12.382-12.454,28.818-19.313,46.28-19.313 c36.174,0,65.604,29.735,65.604,66.283C373.931,281.672,312.507,346.71,255.956,374.676z"/> </g>
</svg>